<svg xmlns="http://www.w3.org/2000/svg" width="200" height="60" viewBox="0 0 981 268.619">
  <g id="Groupe_1" data-name="Groupe 1" transform="translate(-524 -400)">
    <text id="Fromages_racés_vins_fieffés_" data-name="Fromages racés &amp; vins fieffés " transform="translate(607 522)" fill="#30385f" font-size="24" font-family="BritannicBold, Britannic" letter-spacing="0.65em"><tspan x="0" y="0">FROMAGES RACÉS &amp; VINS FIEFFÉS </tspan></text>
    <text id="Tout_un_fromage" data-name="Tout un fromage" transform="translate(524 466)" fill="#30385f" font-size="72" font-family="VastShadow-Regular, Vast Shadow"><tspan x="0" y="0">TOUT UN FROMAGE</tspan></text>
    <g id="_1332804-f44336" data-name="1332804-f44336" transform="translate(1155.503 50.771) rotate(180)">
      <path id="Tracé_35" data-name="Tracé 35" d="M595.932-617.462c-4.681,1.546-7.419,6.4-7.795,13.823a12.662,12.662,0,0,0,.442,4.747A103.515,103.515,0,0,0,593-586.306c2.385,6.072,2.8,7.419,3.776,12.255,1.038,5.189,2.341,12.52,2.341,13.094a.836.836,0,0,0,.177.574,27.821,27.821,0,0,0,1.016-4.681c2.076-11.946,2.561-13.867,5.719-22.346,1.7-4.637,3.069-8.788,3.621-11.04a28.545,28.545,0,0,0-.11-10.047c-.927-4.372-3.18-7.574-6.161-8.744A14.431,14.431,0,0,0,595.932-617.462Z" transform="translate(-458.236)" fill="#30385f"/>
      <path id="Tracé_36" data-name="Tracé 36" d="M449.609-524.55c-4.924,1.7-6.558,7.044-3.378,11.063,1.546,1.943,4.769,3.6,11.592,5.962a38.383,38.383,0,0,1,9.738,4.549,36.242,36.242,0,0,1,6.978,6.448l1.148,1.435.309-.751c1.06-2.561-1.192-9.3-5.123-15.324a43.93,43.93,0,0,0-9.3-10.378,23.674,23.674,0,0,0-6.337-3.18A12.648,12.648,0,0,0,449.609-524.55Z" transform="translate(-346.425 -72.377)" fill="#30385f"/>
      <path id="Tracé_37" data-name="Tracé 37" d="M705.406-524.306c-3.158,1.038-6.2,3.158-9.495,6.6-5.034,5.255-9.473,13.138-10.466,18.548a7.64,7.64,0,0,0,.243,3.908c.177.287.265.243.6-.221a32.354,32.354,0,0,1,4.372-4.725c3.18-2.694,5.321-3.842,11.813-6.4,8.28-3.246,10.025-4.107,12.1-5.984a6.511,6.511,0,0,0,2.363-5.189,5.1,5.1,0,0,0-.508-2.672A7.37,7.37,0,0,0,712.891-524a6.416,6.416,0,0,0-3.687-.773A8.67,8.67,0,0,0,705.406-524.306Z" transform="translate(-533.992 -72.511)" fill="#30385f"/>
      <path id="Tracé_38" data-name="Tracé 38" d="M56.748-501.525c-5.255.685-9.87,2.871-12.674,6.028a18.4,18.4,0,0,0-4.107,14.132c.817,7.463,5.034,12.542,12.255,14.794a21.323,21.323,0,0,0,8.1.972c3.135-.132,4.769-.464,9.3-1.855,1.766-.552,2.672-.729,2.826-.574.331.331-15.832,14.684-22.787,20.2-10.687,8.5-17.024,11.592-25.238,12.321-6.514.6-11.879-.949-15.39-4.416-2.694-2.65-3.621-4.924-3.621-8.832,0-2.915.353-4.284,1.59-6.116a7.4,7.4,0,0,1,3.091-2.694c2.12-1.06,6.094-1.479,7.75-.773.883.353,2.031,1.347,2.031,1.722,0,.133-.508.508-1.1.839-1.457.817-2.054,1.965-2.076,3.93-.022,2.363.972,3.754,3.533,4.9a9.408,9.408,0,0,0,5.94.088,7.326,7.326,0,0,0,4.792-5.079c1.3-4.284-1.016-8.656-5.829-10.952a15.1,15.1,0,0,0-7.265-1.546c-8.744,0-15.125,3.8-17.289,10.312C.044-452.55,0-452.086,0-448.84c0,3.135.066,3.71.53,5.079,2.208,6.536,7.154,10.621,14.706,12.122a42.938,42.938,0,0,0,10.157.353c8.1-.927,15.545-4.262,24.4-10.952,4-3.025,5.653-4.438,13.911-11.924,3.533-3.2,6.978-6.293,7.684-6.867,1.744-1.435,1.943-1.17,1.06,1.435-1.479,4.394-1.877,10.179-.949,13.712a19.279,19.279,0,0,0,8.9,11.9,23.087,23.087,0,0,0,14.11,2.12,18.38,18.38,0,0,0,6.138-1.833,16.088,16.088,0,0,0,7.574-7.441,9.188,9.188,0,0,0,.707-7.6,13.081,13.081,0,0,0-3.687-6.094,12.171,12.171,0,0,0-9.517-3.864c-4.416,0-7.684,1.568-9.274,4.438a4.889,4.889,0,0,0-.662,3.18A5.847,5.847,0,0,0,86.4-447.8c1.016,2.054,2.385,2.8,5.123,2.8a4.978,4.978,0,0,0,4.615-2.274,4.95,4.95,0,0,0,.751-2.915,8.243,8.243,0,0,0-.155-2.561l-.243-.707,1.1.11a8.725,8.725,0,0,1,4.836,2.517,8.4,8.4,0,0,1,.066,10.51,14.064,14.064,0,0,1-7.507,4.527,21.879,21.879,0,0,1-8.545-.133c-6.359-1.634-9.738-5.962-10.356-13.271a30.184,30.184,0,0,1,.662-7.441c1.9-7.552,7.287-12.542,16.075-14.86a41.3,41.3,0,0,1,12.387-1.413c4.416,0,5.1.044,7.618.6,14.22,3.025,22.478,10.886,23.649,22.478.552,5.631-.861,10.621-3.687,12.961-3.334,2.782-9.451,3.268-12.409.994a5.3,5.3,0,0,1-1.3-6.138c.53-.927,2.341-2.318,3.047-2.318.309,0,.42.155.42.6a3.491,3.491,0,0,0,2.1,2.826c1.833.707,3.643-.133,4.637-2.208a3.063,3.063,0,0,0,.464-2.252,5.694,5.694,0,0,0-3.975-4.482,8.316,8.316,0,0,0-2.672-.177c-4.527.243-8.656,3.886-9.075,8.037-.552,5.255,2.672,9.451,8.126,10.6a23.592,23.592,0,0,0,8.126-.243,14.115,14.115,0,0,0,10.069-8.876c.331-.905.707-1.59.817-1.546a2.952,2.952,0,0,1,.618,1.214,13.8,13.8,0,0,0,6.845,7.971,14.452,14.452,0,0,0,7.817,1.678,14.254,14.254,0,0,0,4.394-.42c5.189-1.568,7.684-4.946,7.375-9.981a7.027,7.027,0,0,0-2.274-5.079,10.569,10.569,0,0,0-9.76-2.628,6.558,6.558,0,0,0-2.12,1.237,3.965,3.965,0,0,0-.353,6.028c1.546,1.744,3.312,1.877,4.836.353a4.793,4.793,0,0,0,1.1-1.744c.265-1.038.375-1.06,1.5-.486a4.617,4.617,0,0,1,2.561,4.217c.022,2.407-1.766,4.284-4.725,4.946-5.079,1.17-9.782-.905-11.835-5.233a15.779,15.779,0,0,1-1.413-7.353c0-6.713,2.12-12.122,6.536-16.516,4.041-4.041,10.312-7.154,17.356-8.567a28.6,28.6,0,0,1,7.243-.486c11.063.022,18.923,2.583,23.891,7.772,3.864,4.063,5.785,9.716,5.388,16.053-.243,4.262-1.259,6.911-3.577,9.384-2.363,2.5-5.321,3.776-9.76,4.217-6.072.618-12.056-2.164-14.132-6.6-.53-1.126-.6-1.524-.6-3.577,0-2.031.066-2.473.6-3.555a7.13,7.13,0,0,1,5.564-4.129l1.06-.11-.155.927a11.4,11.4,0,0,0,.795,4.9,5.123,5.123,0,0,0,2.782,2.385,9.178,9.178,0,0,0,4.328-.044c2.076-.883,3.268-2.826,3.423-5.609a4.563,4.563,0,0,0-.486-3.025c-1.479-3.025-4.968-4.769-9.517-4.769a13.035,13.035,0,0,0-6.183,1.413c-5.41,2.65-8.634,9.473-6.955,14.728,1.656,5.145,6.58,9.119,13.028,10.51a30.863,30.863,0,0,0,10.665-.11,18.354,18.354,0,0,0,13.646-13.4,22.882,22.882,0,0,0-1.391-14.529c-1.369-2.981-.464-2.451,6.227,3.6,10.157,9.186,13.977,12.409,18.548,15.677,6.779,4.836,13.491,7.927,19.983,9.208a45.548,45.548,0,0,0,12.255,0c7.309-1.524,11.99-4.9,14.662-10.555a13.562,13.562,0,0,0,1.546-6.823,14.409,14.409,0,0,0-10.179-14.154c-3.467-1.192-9.208-1.678-12.1-.994-5.918,1.391-9.936,6.2-9.186,10.952a7.814,7.814,0,0,0,4.615,6.138,6.186,6.186,0,0,0,3.246.6c2.517,0,4-.486,5.3-1.744a4.781,4.781,0,0,0-1.038-7.662c-.464-.243-.839-.508-.839-.618,0-.42.949-1.347,1.833-1.766,1.855-.905,5.785-.486,8.369.905,2.937,1.568,4.372,4.372,4.372,8.567a11.561,11.561,0,0,1-3.378,8.656c-3.2,3.2-7.287,4.637-13.182,4.637-11.04,0-19.056-4.394-38.531-21.22-9.561-8.236-12.719-11.129-12.5-11.35.155-.155,1.237.066,3.489.685,6.955,1.965,10.047,2.252,14.485,1.347a18.592,18.592,0,0,0,10.312-5.277,15.372,15.372,0,0,0,4.24-7.22,26.622,26.622,0,0,0,.088-9.892,16.558,16.558,0,0,0-6.183-9.252c-5.7-4.041-14.353-5.211-20.668-2.76-5.807,2.23-9.936,7.64-9.362,12.211.53,4.2,3.268,6.668,7.6,6.933,2.65.155,4.173-.309,5.542-1.678a4.693,4.693,0,0,0,1.457-4.151c-.287-2.87-2.164-4.46-5.321-4.571-.751-.022-1.237-.155-1.237-.287a10.507,10.507,0,0,1,2.363-3.047c3.069-2.606,9.87-2.451,14.816.331a14.807,14.807,0,0,1,5.1,5.366c2.539,5.277,1.237,12.255-2.915,15.92a17.61,17.61,0,0,1-6.006,3.091c-4.041,1.06-9.3.442-17.113-1.987a159.068,159.068,0,0,0-25.393-4.99,62.411,62.411,0,0,0-14.618-.11c-10.488,1.656-20.005,6.956-24.907,13.845a39.968,39.968,0,0,0-3.489,6.6l-.309.773-.221-.552a32.187,32.187,0,0,0-7.154-10.82c-7.949-7.419-19.961-11.482-31.4-10.643a159.194,159.194,0,0,0-30.516,5.984c-5.609,1.744-10.378,2.583-13.58,2.385a13.963,13.963,0,0,1-9.627-4.129c-2.694-2.672-3.754-5.366-3.754-9.495a11.506,11.506,0,0,1,3.665-9.164,14.674,14.674,0,0,1,9.958-4.24q6.392-.364,9.186,3.687a13.267,13.267,0,0,1,.839,1.325,4.431,4.431,0,0,1-1.479.177c-2.8.066-4.593,1.435-5.145,3.908-.817,3.71,1.833,6.514,6.183,6.514,3.842,0,6.624-1.678,7.772-4.7,2.318-6.094-2.694-12.961-11-15.081A25.59,25.59,0,0,0,56.748-501.525Z" transform="translate(0 -90.522)" fill="#30385f"/>
    </g>
  </g>
</svg>
