<svg xmlns="http://www.w3.org/2000/svg" width="25" height="25" viewBox="0 0 25 25">
  <path id="bag" data-name="Icon awesome-shopping-bag" d="M19.643,7.812V6.25C19.643,2.8,16.439,0,12.5,0S5.357,2.8,5.357,6.25V7.812H0V21.094A4.213,4.213,0,0,0,4.464,25H20.536A4.213,4.213,0,0,0,25,21.094V7.812ZM8.929,6.25A3.374,3.374,0,0,1,12.5,3.125,3.374,3.374,0,0,1,16.071,6.25V7.812H8.929Zm8.929,5.859a1.264,1.264,0,0,1-1.339-1.172,1.351,1.351,0,0,1,2.679,0A1.264,1.264,0,0,1,17.857,12.109Zm-10.714,0A1.264,1.264,0,0,1,5.8,10.938,1.264,1.264,0,0,1,7.143,9.766a1.264,1.264,0,0,1,1.339,1.172A1.264,1.264,0,0,1,7.143,12.109Z" fill="#fff"/>
</svg>
