<svg xmlns="http://www.w3.org/2000/svg" width="27.612" height="22.09" viewBox="0 0 27.612 22.09">
  <g id="sun" transform="translate(-1.125 -4.5)">
    <g id="Groupe_1" data-name="Groupe 1" transform="translate(1.125 4.5)">
      <path id="Tracé_11" data-name="Tracé 11" d="M11.62,4.5H11.6a.911.911,0,0,0-.909.909V7.151a.911.911,0,0,0,.909.909h.017a.911.911,0,0,0,.909-.909V5.409A.911.911,0,0,0,11.62,4.5Z" transform="translate(-2.867 -4.5)" fill="#fff"/>
      <path id="Tracé_12" data-name="Tracé 12" d="M4.748,15v-.017a.911.911,0,0,0-.909-.909H2.034a.911.911,0,0,0-.909.909V15a.911.911,0,0,0,.909.909h1.8A.912.912,0,0,0,4.748,15Z" transform="translate(-1.125 -6.242)" fill="#fff"/>
      <path id="Tracé_13" data-name="Tracé 13" d="M5.285,9.869A.909.909,0,1,0,6.574,8.586L5.406,7.407a.91.91,0,0,0-.644-.27h0A.912.912,0,0,0,4.118,8.69Z" transform="translate(-1.622 -4.98)" fill="#fff"/>
      <path id="Tracé_14" data-name="Tracé 14" d="M18.45,7.337a.91.91,0,0,0-.644-.27h0a.91.91,0,0,0-.644.27L15.994,8.51a.913.913,0,0,0,0,1.283l.017.017h.006a.894.894,0,0,0,.621.247.91.91,0,0,0,.644-.27L18.45,8.613A.906.906,0,0,0,18.45,7.337Z" transform="translate(-3.784 -4.967)" fill="#fff"/>
      <path id="Tracé_15" data-name="Tracé 15" d="M6.07,19.216h0a.91.91,0,0,0-.644.27L4.259,20.666a.909.909,0,1,0,1.288,1.283l1.167-1.179a.912.912,0,0,0-.644-1.553Z" transform="translate(-1.648 -7.179)" fill="#fff"/>
    </g>
    <path id="Tracé_16" data-name="Tracé 16" d="M24.509,17.1h-.138a3.812,3.812,0,0,0-.518.023,6.461,6.461,0,0,0-8.69-4.618,6.361,6.361,0,0,0-.845.408,6.488,6.488,0,0,0-3.232,5.268c-.006.121-.012.236-.012.357,0,.2.012.391.029.581,0,.023.006.046.006.063a4.407,4.407,0,0,0,.385,8.782H24.515A5.433,5.433,0,0,0,24.509,17.1Z" transform="translate(-1.11 -1.375)" fill="#fff"/>
    <path id="Tracé_17" data-name="Tracé 17" d="M9.841,18.083v-.017c-.017-.2-.029-.391-.029-.587,0-.121.006-.242.012-.362a6.592,6.592,0,0,1,3.29-5.354,6.179,6.179,0,0,1,.857-.414h.006a4.214,4.214,0,1,0-4.135,6.735Z" transform="translate(-0.969 -0.954)" fill="#fff"/>
  </g>
</svg>
